#!OML:ASF E:\Steps\Project 1\Capture day 1\Session 2\Subject.ASF
:FULLY-SPECIFIED
:DEGREES
47
root -1.10885 17.9824 20.9094 -154.185 2.90464 178.172
lowerback -27.5967 -3.71815 -6.38322
upperback 0.366482 -2.42336 -0.0680212
thorax 15.4193 -1.39097 2.52062
lowerneck -0.88133 -8.24187 -1.19071
upperneck 21.6852 -9.81943 0.00786061
head 6.81968 -4.26905 -0.332256
rclavicle -3.18055e-014 -3.06128e-014
rhumerus -36.7704 -14.5689 -81.8198
rradius 33.6688
rwrist -2.8614
rhand -10.4296 -56.2185
rfingers 7.12502
rthumb 15.5699 -85.6117
lclavicle -3.18055e-014 -3.06128e-014
lhumerus -28.3041 3.83059 81.803
lradius 23.9208
lwrist -2.69299
lhand -24.297 -14.3775
lfingers 7.12502
lthumb 2.19053 15.591
rfemur -24.9059 7.35465 18.7814
rtibia 7.83438
rfoot -17.593 -1.38028
rtoes -36.5865
lfemur -23.6497 -6.71488 -23.2208
ltibia 6.98707
lfoot -7.12947 -0.0477075
ltoes -37.4403
48
root -1.10801 17.9821 20.9069 -154.182 2.97099 178.192
lowerback -27.4102 -3.71555 -6.45617
upperback 0.246054 -2.42256 0.0178988
thorax 15.1952 -1.39049 2.663
lowerneck -0.774472 -8.3103 -1.31199
upperneck 21.7484 -9.88875 0.00525025
head 6.82924 -4.30593 -0.314591
rclavicle -1.23246e-014 -5.96354e-015
rhumerus -36.994 -14.6297 -81.5617
rradius 33.8299
rwrist -2.25753
rhand -10.8796 -54.6643
rfingers 7.12502
rthumb 15.1364 -84.0907
lclavicle -1.23246e-014 -5.96354e-015
lhumerus -28.4957 3.83735 81.8873
lradius 24.001
lwrist -2.59847
lhand -23.9814 -13.9363
lfingers 7.12502
lthumb 2.49531 16.0288
rfemur -24.9354 7.4602 18.769
rtibia 7.87433
rfoot -17.5767 -1.40063
rtoes -36.63
lfemur -23.6351 -6.70023 -23.2058
ltibia 6.96195
lfoot -7.14505 -0.0128363
ltoes -37.621
49
root -1.10722 17.9802 20.9042 -154.117 2.98782 178.17
lowerback -27.6247 -3.71027 -6.44627
upperback 0.350256 -2.3996 -0.00878433
thorax 15.4169 -1.38705 2.62845
lowerneck -0.787934 -8.37035 -1.29469
upperneck 21.6497 -10.0045 0.0958437
head 6.80462 -4.3611 -0.295344
rclavicle -8.74653e-015 -2.38542e-015
rhumerus -36.8275 -14.8884 -81.5629
rradius 33.7946
rwrist -1.99862
rhand -9.97106 -56.3214
rfingers 7.12502
rthumb 16.0115 -85.6798
lclavicle -8.74653e-015 -2.38542e-015
lhumerus -28.3336 3.67929 81.8948
lradius 24.0796
lwrist -2.5131
lhand -23.7839 -13.4238
lfingers 7.12502
lthumb 2.6861 16.539
rfemur -24.9938 7.44279 18.7274
rtibia 7.85054
rfoot -17.617 -1.34847
rtoes -36.4097
lfemur -23.7176 -6.4562 -23.3349
ltibia 6.9652
lfoot -7.1597 0.0149143
ltoes -40.628
50
root -1.10527 17.9805 20.9017 -154.07 2.91553 178.226
lowerback -27.8089 -3.6921 -6.36487
upperback 0.470672 -2.39013 -0.0270769
thorax 15.6429 -1.38647 2.55944
lowerneck -0.933904 -8.42875 -1.09657
upperneck 21.6381 -10.0971 0.00366204
head 6.81053 -4.40262 -0.367704
rclavicle 1.09332e-014 -1.35174e-014
rhumerus -36.6054 -14.918 -81.7447
rradius 33.7042
rwrist -2.53458
rhand -10.3116 -56.837
rfingers 7.12502
rthumb 15.6835 -86.2214
lclavicle 1.09332e-014 -1.35174e-014
lhumerus -28.1129 3.63712 81.8325
lradius 24.08
lwrist -2.51467
lhand -23.5712 -13.2981
lfingers 7.12502
lthumb 2.89152 16.662
rfemur -24.9455 7.56789 18.7809
rtibia 7.70516
rfoot -17.6415 -1.46066
rtoes -36.0029
lfemur -23.7532 -6.632 -23.169
ltibia 6.97865
lfoot -7.20926 0.0240237
ltoes -38.7429
51
root -1.1041 17.9803 20.8982 -154.03 2.85885 178.315
lowerback -27.8011 -3.67253 -6.27515
upperback 0.447959 -2.39955 0.00326408
thorax 15.6119 -1.38376 2.54097
lowerneck -1.08062 -8.43164 -0.976014
upperneck 21.7918 -10.0716 -0.169506
head 6.86912 -4.38793 -0.448646
rclavicle 2.36554e-014 -1.19271e-014
rhumerus -36.6428 -14.8782 -81.716
rradius 33.8134
rwrist -2.34599
rhand -10.9655 -55.5143
rfingers 7.12502
rthumb 15.0537 -84.947
lclavicle 2.36554e-014 -1.19271e-014
lhumerus -28.1014 3.68845 81.8144
lradius 24.0318
lwrist -2.55893
lhand -23.4237 -13.3893
lfingers 7.12502
lthumb 3.03396 16.5689
rfemur -24.9145 7.59365 18.8927
rtibia 7.59642
rfoot -17.5612 -1.53151
rtoes -36.1485
lfemur -23.8247 -6.47472 -23.1185
ltibia 7.04266
lfoot -7.22632 0.0126807
ltoes -41.0956
52
root -1.10233 17.9815 20.8944 -154.124 2.88126 178.263
lowerback -27.7476 -3.69509 -6.44259
upperback 0.490205 -2.39557 0.0676049
thorax 15.645 -1.40281 2.70431
lowerneck -1.17024 -8.42277 -1.07107
upperneck 21.8952 -10.0382 -0.210023
head 6.92123 -4.37798 -0.450419
rclavicle -5.1684e-015 -9.54166e-015
rhumerus -36.6275 -14.6704 -81.7156
rradius 33.8038
rwrist -2.91346
rhand -9.85428 -58.3429
rfingers 7.12502
rthumb 16.124 -87.6922
lclavicle -5.1684e-015 -9.54166e-015
lhumerus -28.0636 3.86428 81.8701
lradius 23.9642
lwrist -2.60766
lhand -23.3027 -13.6419
lfingers 7.12502
lthumb 3.15082 16.3145
rfemur -24.7609 7.46961 18.8954
rtibia 7.54211
rfoot -17.5143 -1.46274
rtoes -36.4773
lfemur -23.6413 -6.71887 -23.0843
ltibia 6.8995
lfoot -7.19508 0.0301474
ltoes -37.7597
53
root -1.10175 17.9801 20.8925 -154.066 2.93789 178.282
lowerback -27.8404 -3.64677 -6.35304
upperback 0.488754 -2.33893 0.00155885
thorax 15.6758 -1.36663 2.60341
lowerneck -1.20364 -8.40087 -1.10349
upperneck 22.0161 -10.0107 -0.123457
head 6.97284 -4.35321 -0.419916
rclavicle -4.07509e-015 -1.78906e-014
rhumerus -36.6768 -14.9128 -81.707
rradius 33.7289
rwrist -2.78756
rhand -9.177 -58.7186
rfingers 7.12502
rthumb 16.7761 -88.0138
lclavicle -4.07509e-015 -1.78906e-014
lhumerus -28.1171 3.5418 81.8494
lradius 24.0001
lwrist -2.66755
lhand -24.1247 -13.5886
lfingers 7.12502
lthumb 2.35691 16.3781
rfemur -24.8504 7.44773 18.9226
rtibia 7.60743
rfoot -17.5135 -1.37737
rtoes -36.6478
lfemur -23.6773 -6.63915 -23.0844
ltibia 6.91122
lfoot -7.23723 -0.0287359
ltoes -37.6249
54
root -1.10155 17.9821 20.8912 -154.047 2.91031 178.368
lowerback -27.9635 -3.63607 -6.29743
upperback 0.561973 -2.34616 0.0456385
thorax 15.823 -1.37489 2.61311
lowerneck -1.18628 -8.31693 -1.26706
upperneck 21.9951 -9.91039 0.0324665
head 6.97986 -4.30564 -0.337517
rclavicle 2.38542e-014 -1.27222e-014
rhumerus -36.5941 -15.0247 -81.6335
rradius 33.7782
rwrist -2.56258
rhand -8.65778 -59.2689
rfingers 7.12502
rthumb 17.2758 -88.521
lclavicle 2.38542e-014 -1.27222e-014
lhumerus -27.9845 3.59754 81.7919
lradius 23.9806
lwrist -2.51674
lhand -23.9086 -13.5465
lfingers 7.12502
lthumb 2.56565 16.4178
rfemur -24.8623 7.44034 19.0434
rtibia 7.64244
rfoot -17.4981 -1.33285
rtoes -36.6833
lfemur -23.7064 -6.56555 -22.994
ltibia 6.99109
lfoot -7.30885 -0.0338557
ltoes -38.0812
